# xmcd
#
# Track frame offsets:
# 150
# 13477
# 24705
# 34992
# 47670
# 59117
# 71542
# 83412
# 95915
# 108780
# 119815
# 131092
# 141225
# 152372
# 164725
# 175667
# 186155
# 196775
#
# Disc length: 2780 seconds
#
#
# Revision: 0
# Processed by: cddbd v1.5.1PL2 Copyright (c) Steve Scherf et al.
# Submitted via: FreeRIP 2.944 
#
DISCID=060ada12
DTITLE=Jimmy Reed - The Masters
DYEAR=1997
DGENRE=Blues
TTITLE0=How Long, How Long Blues
TTITLE1=St Louis Blues
TTITLE2=Worried Life Blues
TTITLE3=High and Lonesome
TTITLE4=Rockin' with Reed
TTITLE5=Pretty Thing
TTITLE6=Coem On Baby
TTITLE7=My First Plea
TTITLE8=You Got Me Dizzy
TTITLE9=It's You Baby
TTITLE10=Signals of Love
TTITLE11=State Street Boogie
TTITLE12=Odds and Ends
TTITLE13=String to Your Heart
TTITLE14=The Moon is Rising
TTITLE15=Going to New York
TTITLE16=Take Out Some Insurance
TTITLE17=Blue Blue Water
EXTD=
EXTT0=
EXTT1=
EXTT2=
EXTT3=
EXTT4=
EXTT5=
EXTT6=
EXTT7=
EXTT8=
EXTT9=
EXTT10=
EXTT11=
EXTT12=
EXTT13=
EXTT14=
EXTT15=
EXTT16=
EXTT17=
PLAYORDER=
